<?xml version="1.0" encoding="UTF-8"?>
<svg id="Background" xmlns="http://www.w3.org/2000/svg" xmlns:xlink="http://www.w3.org/1999/xlink" viewBox="0 0 168 96.99">
  <defs>
    <style>
      .cls-1 {
        fill: #181816;
      }

      .cls-2 {
        filter: url(#drop-shadow-2);
      }

      .cls-3 {
        filter: url(#drop-shadow-5);
      }

      .cls-4 {
        fill: #1f1f1c;
      }

      .cls-5 {
        fill: none;
      }

      .cls-6 {
        filter: url(#drop-shadow-4);
      }

      .cls-7 {
        filter: url(#drop-shadow-1);
      }

      .cls-8 {
        filter: url(#drop-shadow-3);
      }

      .cls-9 {
        clip-path: url(#clippath);
      }
    </style>
    <clipPath id="clippath">
      <rect class="cls-5" width="168" height="96.99"/>
    </clipPath>
    <filter id="drop-shadow-1" x="108.84" y="44.55" width="118.32" height="104.88" filterUnits="userSpaceOnUse">
      <feOffset dx="0" dy="0"/>
      <feGaussianBlur result="blur" stdDeviation="3"/>
      <feFlood flood-color="#000" flood-opacity=".75"/>
      <feComposite in2="blur" operator="in"/>
      <feComposite in="SourceGraphic"/>
    </filter>
    <filter id="drop-shadow-2" x="-59.16" y="44.55" width="118.32" height="104.88" filterUnits="userSpaceOnUse">
      <feOffset dx="0" dy="0"/>
      <feGaussianBlur result="blur-2" stdDeviation="3"/>
      <feFlood flood-color="#000" flood-opacity=".75"/>
      <feComposite in2="blur-2" operator="in"/>
      <feComposite in="SourceGraphic"/>
    </filter>
    <filter id="drop-shadow-3" x="108.84" y="-52.41" width="118.32" height="104.88" filterUnits="userSpaceOnUse">
      <feOffset dx="0" dy="0"/>
      <feGaussianBlur result="blur-3" stdDeviation="3"/>
      <feFlood flood-color="#000" flood-opacity=".75"/>
      <feComposite in2="blur-3" operator="in"/>
      <feComposite in="SourceGraphic"/>
    </filter>
    <filter id="drop-shadow-4" x="24.84" y="-3.93" width="118.32" height="104.88" filterUnits="userSpaceOnUse">
      <feOffset dx="0" dy="0"/>
      <feGaussianBlur result="blur-4" stdDeviation="3"/>
      <feFlood flood-color="#000" flood-opacity=".75"/>
      <feComposite in2="blur-4" operator="in"/>
      <feComposite in="SourceGraphic"/>
    </filter>
    <filter id="drop-shadow-5" x="-59.16" y="-52.41" width="118.32" height="104.88" filterUnits="userSpaceOnUse">
      <feOffset dx="0" dy="0"/>
      <feGaussianBlur result="blur-5" stdDeviation="3"/>
      <feFlood flood-color="#000" flood-opacity=".75"/>
      <feComposite in2="blur-5" operator="in"/>
      <feComposite in="SourceGraphic"/>
    </filter>
  </defs>
  <g class="cls-9">
    <g class="cls-7">
      <polygon class="cls-4" points="143.29 139.8 118.58 97 143.29 54.19 192.71 54.19 217.42 97 192.71 139.8 143.29 139.8"/>
      <path class="cls-1" d="M192.42,54.69l24.42,42.3-24.42,42.3h-48.85l-24.42-42.3,24.42-42.3h48.85M193,53.69h-50l-25,43.3,25,43.3h50l25-43.3-25-43.3h0Z"/>
    </g>
    <g class="cls-2">
      <polygon class="cls-4" points="-24.71 139.8 -49.42 97 -24.71 54.19 24.71 54.19 49.42 97 24.71 139.8 -24.71 139.8"/>
      <path class="cls-1" d="M24.42,54.69l24.42,42.3-24.42,42.3H-24.42l-24.42-42.3,24.42-42.3H24.42M25,53.69H-25l-25,43.3,25,43.3H25l25-43.3-25-43.3h0Z"/>
    </g>
    <g class="cls-8">
      <polygon class="cls-4" points="143.29 42.8 118.58 0 143.29 -42.8 192.71 -42.8 217.42 0 192.71 42.8 143.29 42.8"/>
      <path class="cls-1" d="M192.42-42.3L216.85,0l-24.42,42.3h-48.85L119.15,0l24.42-42.3h48.85M193-43.3h-50L118,0l25,43.3h50L218,0l-25-43.3h0Z"/>
    </g>
    <g class="cls-6">
      <polygon class="cls-4" points="59.29 91.3 34.58 48.5 59.29 5.7 108.71 5.7 133.42 48.5 108.71 91.3 59.29 91.3"/>
      <path class="cls-1" d="M108.42,6.2l24.42,42.3-24.42,42.3h-48.85l-24.42-42.3L59.58,6.2h48.85M109,5.2h-50l-25,43.3,25,43.3h50l25-43.3L109,5.2h0Z"/>
    </g>
    <g class="cls-3">
      <polygon class="cls-4" points="-24.71 42.8 -49.42 0 -24.71 -42.8 24.71 -42.8 49.42 0 24.71 42.8 -24.71 42.8"/>
      <path class="cls-1" d="M24.42-42.3L48.85,0l-24.42,42.3H-24.42L-48.85,0l24.42-42.3H24.42M25-43.3H-25L-50,0l25,43.3H25L50,0l-25-43.3h0Z"/>
    </g>
  </g>
</svg>